<?xml version="1.0" encoding="utf-8"?>
<!-- Generator: Adobe Illustrator 26.0.0, SVG Export Plug-In . SVG Version: 6.00 Build 0)  -->
<svg version="1.1" id="Layer_1" xmlns="http://www.w3.org/2000/svg" xmlns:xlink="http://www.w3.org/1999/xlink" x="0px" y="0px"
	 viewBox="0 0 945.7 20" style="enable-background:new 0 0 945.7 20;" xml:space="preserve">
<style type="text/css">
	.st0{fill:none;stroke:#FFFFFF;stroke-width:2;stroke-linecap:round;stroke-miterlimit:10;}
</style>
<path class="st0" d="M1.1,7.1c19.7,0,19.7,5.8,39.3,5.8c19.7,0,19.7-5.8,39.4-5.8s19.7,5.8,39.3,5.8c19.7,0,19.7-5.8,39.3-5.8
	c19.7,0,19.7,5.8,39.3,5.8s19.7-5.8,39.3-5.8c19.7,0,19.7,5.8,39.3,5.8c19.7,0,19.7-5.8,39.4-5.8c19.7,0,19.7,5.8,39.3,5.8
	c19.7,0,19.7-5.8,39.3-5.8c19.7,0,19.7,5.8,39.3,5.8s19.7-5.8,39.3-5.8c19.7,0,19.7,5.8,39.3,5.8c19.7,0,19.7-5.8,39.4-5.8
	c19.7,0,19.7,5.8,39.3,5.8c19.7,0,19.7-5.8,39.3-5.8c19.7,0,19.7,5.8,39.3,5.8c19.6,0,19.7-5.8,39.3-5.8c19.7,0,19.7,5.8,39.3,5.8
	c19.7,0,19.7-5.8,39.4-5.8s19.7,5.8,39.3,5.8c19.7,0,19.7-5.8,39.3-5.8c19.7,0,19.7,5.8,39.3,5.8c19.6,0,19.7-5.8,39.3-5.8"/>
</svg>
