<svg width="123" height="46" viewBox="0 0 123 46" fill="none" xmlns="http://www.w3.org/2000/svg">
<g clip-path="url(#clip0_131_670)">
<path fill-rule="evenodd" clip-rule="evenodd" d="M60.7049 9.72806C59.1024 9.72806 57.6147 10.2252 56.3822 11.0734V2.1804C56.3822 1.25243 55.6335 0.5 54.7101 0.5C53.7867 0.5 53.038 1.25243 53.038 2.1804V25.8581C53.038 30.1064 56.4775 33.5617 60.7037 33.5617C64.931 33.5617 68.3693 30.1064 68.3693 25.8581V17.4316C68.3706 13.1834 64.931 9.72806 60.7049 9.72806ZM65.0263 25.8594C65.0263 28.2542 63.0879 30.2034 60.7037 30.2034C58.3207 30.2034 56.381 28.2554 56.381 25.8594V17.4328C56.381 15.0381 58.3194 13.0889 60.7037 13.0889C63.0867 13.0889 65.0263 15.0368 65.0263 17.4328V25.8594Z" fill="#23D1EC"/>
<path d="M12.3876 15.8457C12.1629 13.4387 10.3784 12.1155 7.5019 12.2161C5.52441 12.2836 3.43699 13.2411 3.50661 15.723C3.56768 17.9349 5.0566 19.1832 8.05765 19.5392C12.5342 20.0694 15.3679 22.6631 15.451 26.3062C15.4949 28.264 14.839 29.9972 13.5541 31.3191C12.1458 32.7663 10.1243 33.5642 7.861 33.5642C3.9109 33.5642 0.688774 30.8711 0.0243169 27.0169C-0.133247 26.1024 0.476246 25.2334 1.38621 25.075C2.29495 24.9155 3.16095 25.5292 3.31851 26.4437C3.76677 29.041 5.9226 30.2034 7.861 30.2034C9.21679 30.2034 10.3894 29.7652 11.1625 28.9698C11.8135 28.2996 12.1323 27.4293 12.1079 26.3823C12.0481 23.7825 9.29862 23.0694 7.66557 22.8754C1.05032 22.0911 0.216081 17.6771 0.16356 15.8163C0.0536312 11.87 3.02292 9.00877 7.38709 8.85779C12.0566 8.69823 15.3239 11.3152 15.7172 15.5315C15.804 16.4558 15.1285 17.2745 14.2088 17.3617C13.2915 17.4488 12.4743 16.77 12.3876 15.8457Z" fill="#23D1EC"/>
<path fill-rule="evenodd" clip-rule="evenodd" d="M24.856 9.72806C20.6286 9.72806 17.1903 13.1834 17.1903 17.4316V25.8581C17.1903 30.1064 20.6298 33.5617 24.856 33.5617C29.0821 33.5617 32.5216 30.1064 32.5216 25.8581V17.4316C32.5229 13.1834 29.0833 9.72806 24.856 9.72806ZM29.1786 25.8594C29.1786 28.2542 27.2402 30.2034 24.856 30.2034C22.4717 30.2034 20.5333 28.2554 20.5333 25.8594V17.4328C20.5333 15.0381 22.4717 13.0889 24.856 13.0889C27.2402 13.0889 29.1786 15.0368 29.1786 17.4328V25.8594Z" fill="#23D1EC"/>
<path d="M48.7752 9.72806C47.8518 9.72806 47.1031 10.4805 47.1031 11.4085V25.8594C47.1031 28.2542 45.1646 30.2034 42.7804 30.2034C40.3962 30.2034 38.4578 28.2554 38.4578 25.8594V11.4085C38.4578 10.4805 37.7091 9.72806 36.7857 9.72806C35.8623 9.72806 35.1135 10.4805 35.1135 11.4085V25.8594C35.1135 30.1076 38.5531 33.5629 42.7792 33.5629C44.3817 33.5629 45.8694 33.0658 47.1018 32.2176V37.7965C47.1018 40.1912 45.1634 42.1404 42.7792 42.1404H42.1868C41.2634 42.1404 40.5147 42.8929 40.5147 43.8208C40.5147 44.7488 41.2634 45.5012 42.1868 45.5012H42.7792C47.0066 45.5012 50.4449 42.0459 50.4449 37.7977V11.4085C50.4461 10.4805 49.6986 9.72806 48.7752 9.72806Z" fill="#23D1EC"/>
<path fill-rule="evenodd" clip-rule="evenodd" d="M92.2299 11.0734C93.4624 10.2252 94.9501 9.72806 96.5526 9.72806C100.78 9.72806 104.218 13.1834 104.218 17.4316V25.8581C104.218 30.1064 100.78 33.5617 96.5526 33.5617C92.3252 33.5617 88.8869 30.1064 88.8869 25.8581V2.1804C88.8869 1.25243 89.6356 0.5 90.559 0.5C91.4824 0.5 92.2299 1.25243 92.2299 2.1804V11.0734ZM96.5526 30.2034C98.9368 30.2034 100.875 28.2542 100.875 25.8594V17.4328C100.875 15.0368 98.9356 13.0889 96.5526 13.0889C94.1684 13.0889 92.2299 15.0381 92.2299 17.4328V25.8594C92.2299 28.2554 94.1696 30.2034 96.5526 30.2034Z" fill="#23D1EC"/>
<path fill-rule="evenodd" clip-rule="evenodd" d="M120.467 23.1651H120.471C120.913 23.1651 121.338 22.9883 121.652 22.6741C121.966 22.3587 122.143 21.9315 122.143 21.4847V17.4316C122.143 13.1834 118.704 9.72806 114.477 9.72806C110.25 9.72806 106.811 13.1834 106.811 17.4316V25.8581C106.811 30.1064 110.25 33.5617 114.477 33.5617C117.924 33.5617 120.657 31.75 121.79 28.7157C122.113 27.8466 121.675 26.8782 120.81 26.5529C119.945 26.2276 118.982 26.6683 118.658 27.5373C118.017 29.2558 116.533 30.2021 114.477 30.2021C112.094 30.2021 110.154 28.2542 110.154 25.8581V23.1381L120.467 23.1651ZM110.154 17.4316C110.154 15.0368 112.093 13.0876 114.477 13.0876C116.86 13.0876 118.8 15.0356 118.8 17.4316V19.7994L110.156 19.7773V17.4316H110.154Z" fill="#23D1EC"/>
<path fill-rule="evenodd" clip-rule="evenodd" d="M70.9624 17.4316C70.9624 13.1834 74.4008 9.72806 78.6281 9.72806C82.8555 9.72806 86.295 13.1834 86.2938 17.4304V21.4835C86.2938 21.9303 86.1167 22.3574 85.8028 22.6729C85.4889 22.9871 85.0638 23.1639 84.6217 23.1639H84.618L74.3055 23.1381V25.8581C74.3055 28.2542 76.2451 30.2021 78.6281 30.2021C80.6838 30.2021 82.1678 29.2558 82.8091 27.5373C83.1328 26.6683 84.0965 26.2276 84.9612 26.5529C85.826 26.8782 86.2645 27.8466 85.9408 28.7157C84.8085 31.75 82.075 33.5617 78.6281 33.5617C74.4008 33.5617 70.9624 30.1064 70.9624 25.8581V17.4316ZM74.3067 19.7785L82.9508 19.8006H82.952V17.4316C82.952 15.0356 81.0124 13.0876 78.6293 13.0876C76.2451 13.0876 74.3067 15.0368 74.3067 17.4316V19.7785Z" fill="#23D1EC"/>
</g>
<defs>
<clipPath id="clip0_131_670">
<rect width="122.143" height="45" fill="white" transform="translate(0 0.5)"/>
</clipPath>
</defs>
</svg>
