<svg width="93" height="46" viewBox="0 0 93 46" fill="none" xmlns="http://www.w3.org/2000/svg">
<g clip-path="url(#clip0_287_630)">
<path d="M11.8968 11.3459C11.9967 11.2955 12.0967 11.2451 12.1966 11.1945C11.775 11.2257 11.3531 11.2545 10.9311 11.2834C9.76075 11.3634 8.58943 11.4435 7.42211 11.5741C6.70989 11.6711 6.00783 11.832 5.32442 12.0547C1.87151 13.0639 0.139051 15.289 0.0381309 18.8933C-0.00832438 20.5352 -0.0123335 22.1772 0.0261122 23.8191C0.107809 27.1399 1.66246 29.3793 4.803 30.4126C9.1786 31.8519 13.6239 31.8254 18.0187 30.5111C20.5057 29.771 22.5241 28.2332 22.8244 25.5179C23.1248 22.8027 23.2113 19.9745 22.8244 17.2761C22.3391 13.8761 18.4825 11.4372 14.7677 11.7135C12.05 11.9202 9.70484 13.6022 9.06568 15.7647C9.51557 15.7647 9.96826 15.7557 10.4224 15.7466C11.4283 15.7264 12.4412 15.7062 13.4461 15.784C15.7504 15.9714 16.8726 17.2617 16.8726 19.5757C16.8726 20.0162 16.8755 20.4567 16.8784 20.8972C16.8843 21.7783 16.8902 22.6593 16.8726 23.5404C16.8365 25.2753 16.0676 26.2989 14.3856 26.7794C12.5278 27.3111 10.5582 27.3111 8.70044 26.7794C7.05928 26.3229 6.25913 25.2584 6.21588 23.5212C6.20731 23.1999 6.19338 22.8769 6.17942 22.5533C6.13073 21.4245 6.08172 20.2885 6.25913 19.196C6.49492 17.6701 6.95738 16.188 7.63117 14.7988C8.50059 13.0577 10.1892 12.2066 11.8968 11.3459Z" fill="#0A913D"/>
<path d="M78.7005 23.4417H83.8667C84.4201 23.4417 84.9724 23.4451 85.5238 23.4485C86.5787 23.455 87.6312 23.4615 88.682 23.4441C89.3199 23.4326 89.9528 23.329 90.561 23.1366C91.39 22.8602 92.0196 22.3316 92.0027 21.3152C91.9859 20.2988 91.354 19.7678 90.5058 19.5275C89.6947 19.3195 88.8609 19.2137 88.0236 19.2127C85.8256 19.186 83.6275 19.1896 81.4285 19.1933L81.4262 19.1933C80.662 19.1946 79.8976 19.1959 79.133 19.1959C77.4486 19.1959 77.3141 18.2203 78.2752 16.8267C78.9432 15.8703 80.4042 15.57 82.0862 15.57C83.0496 15.5547 84.0139 15.5524 84.9783 15.55C86.2965 15.5468 87.6151 15.5436 88.9319 15.5075C89.5927 15.4811 90.3568 15.3873 90.8686 15.0269C91.3804 14.6665 91.8946 13.9456 91.9162 13.3665C91.9355 12.8475 91.3972 12.1122 90.9022 11.8215C90.2289 11.4778 89.4811 11.3053 88.7252 11.3193C86.8793 11.2802 84.6214 11.2941 82.5102 11.3071C81.5078 11.3133 80.5381 11.3193 79.6617 11.3193C76.6004 11.3193 72.3666 12.3549 71.6457 16.656C71.1411 19.6308 71.2877 22.9179 71.6673 25.9023C72.059 28.9755 74.6229 30.8546 78.292 31.0948C81.1391 31.2877 84.0001 31.3041 86.8589 31.3205C87.5613 31.3245 88.2636 31.3285 88.9655 31.3351C89.5446 31.3399 90.2391 31.2318 90.6812 30.905C91.2194 30.4893 91.7721 29.8574 91.9403 29.223C92.1806 28.3267 91.4813 27.7092 90.674 27.4473C89.9881 27.2429 89.2774 27.1337 88.5619 27.1229C87.4357 27.0835 86.3091 27.0598 85.1827 27.0362C83.6294 27.0035 82.0758 26.9709 80.5243 26.897C79.1931 26.8346 78.1695 26.2026 77.7514 24.8162C77.4006 23.6484 77.5111 23.4417 78.7005 23.4417Z" fill="#0A913D"/>
<path d="M38.9329 11.2882C39.733 11.2882 40.3404 11.2918 40.9477 11.2954C41.5549 11.299 42.1625 11.3026 42.9625 11.3026C44.7334 11.3026 46.1511 11.8889 46.1367 13.446C46.1222 14.9309 45.0938 15.4956 42.8808 15.4956C40.3602 15.4956 36.3618 15.4956 33.8412 15.5268C32.6014 15.5268 31.5465 16.2068 31.5729 17.4107C31.6042 18.7851 32.6927 19.2176 34.0214 19.2176H39.8484C44.1255 19.2176 46.3866 21.2432 46.3866 25.2848C46.3866 28.5719 43.6088 31.1983 39.4567 31.1983H28.1633C26.8801 31.1983 25.2991 30.8114 25.3015 29.0573C25.3039 27.3032 26.9186 26.9164 28.1849 26.9164H37.556C38.1928 26.9164 39.8628 26.8395 39.8628 25.119C39.8628 23.4346 38.3771 23.4362 37.6294 23.437L32.2962 23.437C27.4905 23.437 25.0876 21.3297 25.0876 17.4035C25.0876 14.2797 27.464 11.2882 32.9666 11.2882H38.9329Z" fill="#0A913D"/>
<path d="M63.8233 11.2954C63.2155 11.2918 62.6074 11.2882 61.8058 11.2882H55.8467C50.3441 11.2882 47.9653 14.2797 47.9653 17.4035C47.9653 21.3297 50.3681 23.437 55.1739 23.437H60.4602C60.4755 23.437 60.4911 23.437 60.5071 23.437C61.2547 23.4362 62.7381 23.4346 62.7381 25.119C62.7381 26.8395 61.0681 26.9164 60.4313 26.9164H51.0602C49.7939 26.9164 48.1815 27.3032 48.1767 29.0573C48.1719 30.8114 49.7554 31.1983 51.0361 31.1983H62.3296C66.4817 31.1983 69.257 28.5719 69.257 25.2848C69.257 21.2432 66.9983 19.2176 62.7212 19.2176H56.8967C55.5655 19.2176 54.477 18.7851 54.4482 17.4107C54.4194 16.2068 55.4766 15.5268 56.7141 15.5268C59.2371 15.4956 63.2331 15.4956 65.7561 15.4956C67.9667 15.4956 68.9951 14.9309 69.0095 13.446C69.0263 11.8889 67.6087 11.3026 65.8377 11.3026C65.0379 11.3026 64.4307 11.299 63.8233 11.2954Z" fill="#0A913D"/>
<path d="M89.5591 4.28855C89.5591 5.66779 88.9151 6.56406 87.5551 6.85721C84.1687 7.58607 80.7758 8.28851 77.3766 8.96452C76.4563 9.14714 75.5384 9.05583 75.2356 7.96493C74.9401 6.91007 75.6369 6.38625 76.4995 5.99458C79.5896 4.59131 82.6701 3.16161 85.7602 1.76315C87.632 0.905327 89.5423 2.19806 89.5591 4.28855Z" fill="#F08200"/>
</g>
<defs>
<clipPath id="clip0_287_630">
<rect width="92" height="45" fill="white" transform="translate(0.143066 0.5)"/>
</clipPath>
</defs>
</svg>
